<svg xmlns="http://www.w3.org/2000/svg" xmlns:xlink="http://www.w3.org/1999/xlink" width="500" zoomAndPan="magnify" viewBox="0 0 375 374.999991" height="500" preserveAspectRatio="xMidYMid meet" version="1.0"><defs><clipPath id="2b5f4d207d"><path d="M 0 26.625 L 375 26.625 L 375 348.070312 L 0 348.070312 Z M 0 26.625 " clip-rule="nonzero"/></clipPath><clipPath id="d910f34a76"><path d="M 95.101562 93.066406 L 204.804688 93.066406 L 204.804688 165.679688 L 95.101562 165.679688 Z M 95.101562 93.066406 " clip-rule="nonzero"/></clipPath><clipPath id="86a9352ad2"><path d="M 204.804688 227.113281 L 281.402344 227.113281 L 281.402344 280.164062 L 204.804688 280.164062 Z M 204.804688 227.113281 " clip-rule="nonzero"/></clipPath><clipPath id="9de1f8d5d4"><path d="M 187.5 171.050781 L 297.203125 171.050781 L 297.203125 243.664062 L 187.5 243.664062 Z M 187.5 171.050781 " clip-rule="nonzero"/></clipPath><clipPath id="8c006ee559"><path d="M 79 75.273438 L 223 75.273438 L 223 225 L 79 225 Z M 79 75.273438 " clip-rule="nonzero"/></clipPath><clipPath id="5025078a42"><path d="M 151 75.273438 L 223 75.273438 L 223 178 L 151 178 Z M 151 75.273438 " clip-rule="nonzero"/></clipPath><clipPath id="d4d7bdabcd"><path d="M 170.117188 150 L 313.710938 150 L 313.710938 299.277344 L 170.117188 299.277344 Z M 170.117188 150 " clip-rule="nonzero"/></clipPath><clipPath id="c40b80640d"><path d="M 242 150 L 313.710938 150 L 313.710938 299.277344 L 242 299.277344 Z M 242 150 " clip-rule="nonzero"/></clipPath><clipPath id="d169cf4c7a"><path d="M 281.214844 21.511719 L 313.191406 21.511719 L 313.191406 53.488281 L 281.214844 53.488281 Z M 281.214844 21.511719 " clip-rule="nonzero"/></clipPath><clipPath id="3ed20bbf84"><path d="M 297.203125 21.511719 C 288.375 21.511719 281.214844 28.667969 281.214844 37.5 C 281.214844 46.332031 288.375 53.488281 297.203125 53.488281 C 306.035156 53.488281 313.191406 46.332031 313.191406 37.5 C 313.191406 28.667969 306.035156 21.511719 297.203125 21.511719 Z M 297.203125 21.511719 " clip-rule="nonzero"/></clipPath><clipPath id="e13538e932"><path d="M 5.523438 203.636719 L 37.5 203.636719 L 37.5 235.613281 L 5.523438 235.613281 Z M 5.523438 203.636719 " clip-rule="nonzero"/></clipPath><clipPath id="29a69f0ade"><path d="M 21.511719 203.636719 C 12.679688 203.636719 5.523438 210.796875 5.523438 219.625 C 5.523438 228.457031 12.679688 235.613281 21.511719 235.613281 C 30.339844 235.613281 37.5 228.457031 37.5 219.625 C 37.5 210.796875 30.339844 203.636719 21.511719 203.636719 Z M 21.511719 203.636719 " clip-rule="nonzero"/></clipPath><clipPath id="38d00041ce"><path d="M 265.414062 325.582031 L 297.390625 325.582031 L 297.390625 357.558594 L 265.414062 357.558594 Z M 265.414062 325.582031 " clip-rule="nonzero"/></clipPath><clipPath id="6bb41810aa"><path d="M 281.402344 325.582031 C 272.570312 325.582031 265.414062 332.738281 265.414062 341.570312 C 265.414062 350.398438 272.570312 357.558594 281.402344 357.558594 C 290.230469 357.558594 297.390625 350.398438 297.390625 341.570312 C 297.390625 332.738281 290.230469 325.582031 281.402344 325.582031 Z M 281.402344 325.582031 " clip-rule="nonzero"/></clipPath></defs><rect x="-37.5" width="450" fill="#ffffff" y="-37.499999" height="449.999989" fill-opacity="1"/><rect x="-37.5" width="450" fill="#ffffff" y="-37.499999" height="449.999989" fill-opacity="1"/><g clip-path="url(#2b5f4d207d)"><path fill="#0cc0df" d="M 84.464844 335.121094 C 69.285156 324.574219 64.980469 298.617188 72.566406 263.957031 C 73.449219 260.003906 74.503906 255.929688 75.644531 251.859375 C 96.355469 258.332031 120.46875 262.992188 146.777344 265.394531 C 158.230469 278.988281 169.949219 291.203125 181.609375 301.75 C 142.585938 334.855469 104.96875 349.445312 84.464844 335.121094 Z M 77.929688 244.417969 C 82.910156 228.539062 89.792969 211.957031 98.40625 195.140625 C 105.4375 207.824219 113.261719 220.539062 121.992188 233.019531 C 127.878906 241.457031 133.914062 249.515625 140.039062 257.191406 C 117.304688 254.582031 96.269531 250.1875 77.929688 244.417969 Z M 7.355469 187.347656 C 7.355469 165.753906 32.285156 146.007812 70.925781 132.589844 C 76.496094 150.226562 84.257812 168.714844 94.101562 187.347656 C 84.257812 206.007812 76.496094 224.496094 70.925781 242.101562 C 32.285156 228.683594 7.355469 208.96875 7.355469 187.347656 Z M 140.039062 117.53125 C 133.914062 125.207031 127.878906 133.234375 121.992188 141.671875 C 113.261719 154.183594 105.4375 166.898438 98.40625 179.582031 C 89.792969 162.765625 82.910156 146.15625 77.929688 130.304688 C 96.269531 124.535156 117.304688 120.140625 140.039062 117.53125 Z M 72.566406 110.765625 C 64.980469 76.105469 69.285156 50.148438 84.464844 39.574219 C 104.96875 25.277344 142.585938 39.867188 181.609375 72.941406 C 169.949219 83.519531 158.230469 95.734375 146.777344 109.328125 C 120.46875 111.730469 96.355469 116.390625 75.644531 122.863281 C 74.503906 118.761719 73.449219 114.71875 72.566406 110.765625 Z M 157.441406 108.480469 C 167.34375 97.257812 177.421875 87.09375 187.5 78.097656 C 197.578125 87.09375 207.65625 97.257812 217.558594 108.480469 C 207.773438 107.835938 197.753906 107.484375 187.5 107.484375 C 177.246094 107.484375 167.226562 107.835938 157.441406 108.480469 Z M 290.535156 39.574219 C 300.789062 46.75 306.09375 60.929688 306.09375 80.121094 C 306.09375 89.261719 304.890625 99.542969 302.429688 110.765625 C 301.582031 114.71875 300.496094 118.761719 299.355469 122.863281 C 278.640625 116.390625 254.53125 111.730469 228.222656 109.328125 C 216.765625 95.734375 205.046875 83.519531 193.386719 72.941406 C 232.410156 39.867188 270 25.277344 290.535156 39.574219 Z M 297.070312 130.304688 C 292.089844 146.15625 285.203125 162.765625 276.589844 179.582031 C 269.558594 166.898438 261.738281 154.183594 253.007812 141.671875 C 247.117188 133.234375 241.082031 125.207031 234.960938 117.53125 C 257.695312 120.140625 278.730469 124.535156 297.070312 130.304688 Z M 367.644531 187.347656 C 367.644531 208.96875 342.714844 228.683594 304.070312 242.101562 C 298.503906 224.496094 290.742188 206.007812 280.898438 187.347656 C 290.742188 168.714844 298.503906 150.226562 304.070312 132.589844 C 342.714844 146.007812 367.644531 165.753906 367.644531 187.347656 Z M 234.960938 257.191406 C 241.082031 249.515625 247.117188 241.457031 253.007812 233.019531 C 261.738281 220.539062 269.558594 207.824219 276.589844 195.140625 C 285.203125 211.957031 292.089844 228.539062 297.070312 244.417969 C 278.730469 250.1875 257.695312 254.582031 234.960938 257.191406 Z M 187.5 259.855469 C 174.871094 259.855469 162.507812 259.300781 150.527344 258.246094 C 142.792969 249.015625 135.261719 239.203125 128.027344 228.832031 C 118.476562 215.148438 109.980469 201.203125 102.480469 187.347656 C 109.980469 173.488281 118.476562 159.574219 128.027344 145.890625 C 135.261719 135.519531 142.792969 125.707031 150.527344 116.476562 C 162.507812 115.421875 174.871094 114.835938 187.5 114.835938 C 200.125 114.835938 212.488281 115.421875 224.472656 116.476562 C 232.207031 125.707031 239.734375 135.519531 246.972656 145.890625 C 256.523438 159.574219 265.019531 173.488281 272.519531 187.347656 C 265.019531 201.203125 256.523438 215.148438 246.972656 228.832031 C 239.734375 239.203125 232.207031 249.015625 224.472656 258.246094 C 212.488281 259.300781 200.125 259.855469 187.5 259.855469 Z M 217.558594 266.242188 C 207.65625 277.433594 197.578125 287.601562 187.5 296.59375 C 177.421875 287.601562 167.34375 277.433594 157.441406 266.242188 C 167.226562 266.886719 177.246094 267.210938 187.5 267.210938 C 197.753906 267.210938 207.773438 266.886719 217.558594 266.242188 Z M 302.429688 263.957031 C 304.890625 275.148438 306.09375 285.460938 306.09375 294.601562 C 306.09375 313.761719 300.789062 327.972656 290.535156 335.121094 C 270 349.445312 232.410156 334.855469 193.386719 301.75 C 205.046875 291.203125 216.765625 278.988281 228.222656 265.394531 C 254.53125 262.992188 278.640625 258.332031 299.355469 251.859375 C 300.496094 255.929688 301.582031 260.003906 302.429688 263.957031 Z M 294.726562 341.15625 C 312.714844 328.617188 318.015625 300.636719 309.609375 262.375 C 308.699219 258.1875 307.585938 253.878906 306.355469 249.542969 C 348.484375 235.042969 375 212.746094 375 187.347656 C 375 161.945312 348.484375 139.679688 306.355469 125.148438 C 307.585938 120.8125 308.699219 116.535156 309.609375 112.316406 C 318.015625 74.054688 312.742188 46.078125 294.726562 33.539062 C 270.644531 16.75 229.746094 31.398438 187.5 67.757812 C 145.222656 31.398438 104.355469 16.75 80.273438 33.539062 C 67.851562 42.210938 61.496094 58.207031 61.496094 79.855469 C 61.496094 89.582031 62.785156 100.453125 65.390625 112.316406 C 66.300781 116.535156 67.410156 120.8125 68.644531 125.148438 C 26.515625 139.679688 0 161.945312 0 187.347656 C 0 212.746094 26.515625 235.042969 68.644531 249.542969 C 67.410156 253.878906 66.300781 258.1875 65.390625 262.375 C 62.785156 274.269531 61.496094 285.140625 61.496094 294.867188 C 61.496094 316.515625 67.851562 332.511719 80.273438 341.15625 C 104.355469 357.941406 145.222656 343.324219 187.5 306.964844 C 229.746094 343.324219 270.644531 357.941406 294.726562 341.15625 " fill-opacity="1" fill-rule="nonzero"/></g><g clip-path="url(#d910f34a76)"><path fill="#ffffff" d="M 95.101562 93.066406 L 204.871094 93.066406 L 204.871094 165.679688 L 95.101562 165.679688 Z M 95.101562 93.066406 " fill-opacity="1" fill-rule="nonzero"/></g><g clip-path="url(#86a9352ad2)"><path fill="#ffffff" d="M 204.804688 227.113281 L 281.476562 227.113281 L 281.476562 280.164062 L 204.804688 280.164062 Z M 204.804688 227.113281 " fill-opacity="1" fill-rule="nonzero"/></g><g clip-path="url(#9de1f8d5d4)"><path fill="#ffffff" d="M 187.5 171.050781 L 297.269531 171.050781 L 297.269531 243.664062 L 187.5 243.664062 Z M 187.5 171.050781 " fill-opacity="1" fill-rule="nonzero"/></g><g clip-path="url(#8c006ee559)"><path fill="#ffbd59" d="M 184.664062 143.214844 C 175.339844 143.214844 167.734375 136.175781 167.160156 127.292969 C 170.46875 130.425781 177.058594 132.5625 184.664062 132.5625 C 192.28125 132.5625 198.875 130.425781 202.179688 127.292969 C 201.609375 136.175781 193.996094 143.214844 184.664062 143.214844 M 181.761719 200.75 C 173.875 193.710938 163.480469 189.105469 151.097656 189.105469 C 138.714844 189.105469 128.332031 193.710938 120.4375 200.75 L 120.429688 200.398438 C 120.429688 184.632812 134.160156 170.207031 151.097656 170.207031 C 168.039062 170.207031 181.769531 184.632812 181.769531 200.398438 L 181.761719 200.75 M 100.019531 127.292969 C 103.316406 130.425781 109.910156 132.5625 117.53125 132.5625 C 125.140625 132.5625 131.730469 130.425781 135.039062 127.292969 C 134.464844 136.175781 126.855469 143.214844 117.53125 143.214844 C 108.195312 143.214844 100.59375 136.175781 100.019531 127.292969 M 222.476562 75.699219 C 207.742188 83.253906 181.289062 88.296875 151.097656 88.296875 C 120.910156 88.296875 94.460938 83.253906 79.722656 75.699219 C 79.722656 75.699219 72.429688 224.757812 151.097656 224.757812 C 229.765625 224.757812 222.476562 75.699219 222.476562 75.699219 " fill-opacity="1" fill-rule="nonzero"/></g><path fill="#ff914d" d="M 151.097656 224.757812 L 151.097656 189.105469 C 159.015625 189.105469 166.121094 190.992188 172.273438 194.183594 C 173.050781 202.019531 174.167969 210.398438 175.769531 218.882812 C 168.671875 222.628906 160.496094 224.757812 151.097656 224.757812 " fill-opacity="1" fill-rule="nonzero"/><g clip-path="url(#5025078a42)"><path fill="#ff914d" d="M 171.042969 177.769531 C 165.6875 173.117188 158.71875 170.207031 151.097656 170.207031 L 151.097656 88.296875 C 181.289062 88.296875 207.742188 83.253906 222.476562 75.699219 C 222.476562 75.699219 222.65625 79.339844 222.65625 85.480469 C 222.65625 100.929688 221.535156 132.226562 213.609375 161.242188 C 195.683594 159.195312 180.613281 155.273438 170.765625 150.226562 C 170.765625 150.226562 170.210938 161.457031 171.042969 177.769531 M 167.160156 127.292969 C 167.734375 136.175781 175.339844 143.214844 184.664062 143.214844 C 193.996094 143.214844 201.609375 136.175781 202.179688 127.292969 C 198.875 130.425781 192.28125 132.5625 184.664062 132.5625 C 177.058594 132.5625 170.46875 130.425781 167.160156 127.292969 " fill-opacity="1" fill-rule="nonzero"/></g><g clip-path="url(#d4d7bdabcd)"><path fill="#7ed957" d="M 275.714844 212.464844 C 268.109375 212.464844 261.511719 214.601562 258.203125 217.742188 C 258.777344 208.859375 266.390625 201.828125 275.714844 201.828125 C 285.046875 201.828125 292.65625 208.859375 293.230469 217.742188 C 289.917969 214.601562 283.324219 212.464844 275.714844 212.464844 M 242.144531 280.125 C 225.210938 280.125 211.480469 262.785156 211.480469 247.023438 L 211.488281 246.671875 C 219.367188 253.71875 229.765625 258.316406 242.144531 258.316406 C 254.53125 258.316406 264.917969 253.71875 272.8125 246.671875 L 272.820312 247.023438 C 272.820312 262.785156 259.089844 280.125 242.144531 280.125 M 191.0625 217.742188 C 191.632812 208.859375 199.253906 201.828125 208.578125 201.828125 C 217.90625 201.828125 225.515625 208.859375 226.089844 217.742188 C 222.785156 214.601562 216.191406 212.464844 208.578125 212.464844 C 200.960938 212.464844 194.367188 214.601562 191.0625 217.742188 M 313.527344 150.226562 C 298.785156 157.78125 272.339844 162.820312 242.144531 162.820312 C 211.960938 162.820312 185.503906 157.78125 170.765625 150.226562 C 170.765625 150.226562 163.480469 299.277344 242.144531 299.277344 C 320.816406 299.277344 313.527344 150.226562 313.527344 150.226562 " fill-opacity="1" fill-rule="nonzero"/></g><g clip-path="url(#c40b80640d)"><path fill="#00bf63" d="M 242.144531 299.277344 L 242.144531 280.125 C 259.089844 280.125 272.820312 262.785156 272.820312 247.023438 L 272.8125 246.671875 C 264.917969 253.71875 254.53125 258.316406 242.144531 258.316406 L 242.144531 162.820312 C 272.339844 162.820312 298.785156 157.78125 313.527344 150.226562 C 313.527344 150.226562 313.707031 153.867188 313.707031 160.003906 C 313.707031 193.167969 308.523438 299.277344 242.144531 299.277344 M 293.230469 217.742188 C 292.65625 208.859375 285.046875 201.828125 275.714844 201.828125 C 266.390625 201.828125 258.777344 208.859375 258.203125 217.742188 C 261.511719 214.601562 268.109375 212.464844 275.714844 212.464844 C 283.324219 212.464844 289.917969 214.601562 293.230469 217.742188 " fill-opacity="1" fill-rule="nonzero"/></g><g clip-path="url(#d169cf4c7a)"><g clip-path="url(#3ed20bbf84)"><path fill="#39c3ef" d="M 281.214844 21.511719 L 313.191406 21.511719 L 313.191406 53.488281 L 281.214844 53.488281 Z M 281.214844 21.511719 " fill-opacity="1" fill-rule="nonzero"/></g></g><g clip-path="url(#e13538e932)"><g clip-path="url(#29a69f0ade)"><path fill="#39c3ef" d="M 5.523438 203.636719 L 37.5 203.636719 L 37.5 235.613281 L 5.523438 235.613281 Z M 5.523438 203.636719 " fill-opacity="1" fill-rule="nonzero"/></g></g><g clip-path="url(#38d00041ce)"><g clip-path="url(#6bb41810aa)"><path fill="#39c3ef" d="M 265.414062 325.582031 L 297.390625 325.582031 L 297.390625 357.558594 L 265.414062 357.558594 Z M 265.414062 325.582031 " fill-opacity="1" fill-rule="nonzero"/></g></g></svg>
